<svg width="151" height="20" viewBox="0 0 151 20" fill="none" xmlns="http://www.w3.org/2000/svg">
<path d="M0.403893 15V0.871865H3.81865V6.54243H9.38574V0.871865H12.7936V15H9.38574V9.32253H3.81865V15H0.403893ZM17.9226 15.1794C17.2466 15.1794 16.6464 15.0667 16.1221 14.8413C15.6024 14.6114 15.1908 14.2665 14.8873 13.8066C14.5884 13.3421 14.4389 12.7603 14.4389 12.0612C14.4389 11.4726 14.5424 10.9759 14.7493 10.5712C14.9563 10.1664 15.2414 9.83762 15.6047 9.58467C15.9681 9.33173 16.3866 9.14087 16.8603 9.0121C17.334 8.87873 17.8399 8.78905 18.3779 8.74306C18.9804 8.68787 19.4656 8.63038 19.8335 8.57059C20.2014 8.50621 20.4682 8.41653 20.6338 8.30155C20.8039 8.18198 20.889 8.01412 20.889 7.79796V7.76347C20.889 7.40935 20.7671 7.13571 20.5234 6.94255C20.2796 6.74939 19.9508 6.65281 19.5369 6.65281C19.0908 6.65281 18.7321 6.74939 18.4607 6.94255C18.1894 7.13571 18.0169 7.40245 17.9433 7.74277L14.8321 7.6324C14.9241 6.98854 15.1609 6.41366 15.5427 5.90777C15.929 5.39728 16.4579 4.99717 17.1293 4.70743C17.8054 4.4131 18.6171 4.26593 19.5645 4.26593C20.2405 4.26593 20.8637 4.34641 21.434 4.50738C22.0043 4.66374 22.5009 4.89369 22.9241 5.19723C23.3472 5.49616 23.6737 5.86408 23.9036 6.30099C24.1382 6.73789 24.2555 7.23688 24.2555 7.79796V15H21.0822V13.5237H20.9994C20.8108 13.8824 20.5694 14.186 20.275 14.4343C19.9853 14.6827 19.6427 14.8689 19.2472 14.9931C18.8562 15.1173 18.4147 15.1794 17.9226 15.1794ZM18.9643 12.9718C19.3276 12.9718 19.6542 12.8983 19.9439 12.7511C20.2382 12.6039 20.4728 12.4016 20.6476 12.144C20.8223 11.8819 20.9097 11.5783 20.9097 11.2334V10.2262C20.8131 10.2768 20.6958 10.3228 20.5579 10.3642C20.4245 10.4056 20.2773 10.4447 20.1164 10.4815C19.9554 10.5183 19.7898 10.5505 19.6197 10.5781C19.4495 10.6057 19.2862 10.6309 19.1299 10.6539C18.8125 10.7045 18.5412 10.7827 18.3159 10.8885C18.0951 10.9943 17.9249 11.1322 17.8054 11.3024C17.6904 11.468 17.6329 11.6657 17.6329 11.8957C17.6329 12.2452 17.7571 12.5119 18.0054 12.6959C18.2584 12.8799 18.578 12.9718 18.9643 12.9718ZM35.569 7.6393L32.4716 7.72208C32.4394 7.50133 32.352 7.30587 32.2094 7.13571C32.0669 6.96094 31.8806 6.82527 31.6507 6.72869C31.4253 6.62752 31.1632 6.57693 30.8642 6.57693C30.4733 6.57693 30.1399 6.65511 29.864 6.81148C29.5926 6.96784 29.4592 7.1794 29.4638 7.44614C29.4592 7.65309 29.542 7.83245 29.7122 7.98422C29.8869 8.13599 30.1974 8.25786 30.6435 8.34984L32.6854 8.73616C33.7432 8.93851 34.5296 9.27424 35.0447 9.74334C35.5644 10.2124 35.8266 10.8333 35.8312 11.6059C35.8266 12.3326 35.6104 12.9649 35.1827 13.503C34.7596 14.0411 34.1801 14.4596 33.4443 14.7586C32.7084 15.0529 31.8668 15.2001 30.9194 15.2001C29.4063 15.2001 28.2129 14.8896 27.3391 14.2688C26.4699 13.6433 25.9732 12.8063 25.849 11.7577L29.181 11.6749C29.2546 12.0612 29.4454 12.3556 29.7536 12.5579C30.0617 12.7603 30.4549 12.8615 30.9332 12.8615C31.3655 12.8615 31.7173 12.781 31.9887 12.62C32.26 12.4591 32.398 12.2452 32.4026 11.9785C32.398 11.7393 32.2922 11.5484 32.0853 11.4059C31.8783 11.2587 31.5541 11.1437 31.1126 11.061L29.2638 10.7091C28.2014 10.516 27.4104 10.1595 26.8907 9.63986C26.371 9.11558 26.1135 8.44872 26.1181 7.6393C26.1135 6.93105 26.302 6.32628 26.6837 5.82499C27.0655 5.3191 27.6081 4.93278 28.3118 4.66604C29.0154 4.3993 29.8456 4.26593 30.8021 4.26593C32.237 4.26593 33.3684 4.56716 34.1962 5.16963C35.024 5.7675 35.4816 6.59072 35.569 7.6393ZM40.8653 8.95691V15H37.492V0.871865H40.755V6.34928H40.8722C41.1114 5.69622 41.5023 5.18573 42.045 4.81781C42.5923 4.44989 43.2614 4.26593 44.0524 4.26593C44.7975 4.26593 45.4459 4.43149 45.9978 4.76262C46.5497 5.08915 46.9774 5.55135 47.2809 6.14922C47.5891 6.74709 47.7408 7.44614 47.7362 8.24637V15H44.3629V8.90862C44.3675 8.31995 44.2203 7.86005 43.9214 7.52892C43.6224 7.19779 43.2016 7.03223 42.659 7.03223C42.3048 7.03223 41.9921 7.11041 41.7208 7.26678C41.454 7.41854 41.2448 7.637 41.093 7.92214C40.9458 8.20727 40.8699 8.5522 40.8653 8.95691ZM54.7813 19.1943C53.7742 19.1943 52.9119 19.054 52.1944 18.7735C51.477 18.4929 50.9136 18.1089 50.5043 17.6214C50.095 17.1339 49.8489 16.5821 49.7661 15.9658L52.9601 15.7864C53.0199 16.0026 53.1303 16.1911 53.2913 16.3521C53.4568 16.5131 53.6707 16.6372 53.9328 16.7246C54.1996 16.812 54.5123 16.8557 54.871 16.8557C55.4367 16.8557 55.9035 16.7177 56.2714 16.4418C56.6439 16.1704 56.8302 15.6944 56.8302 15.0138V13.1512H56.7129C56.5796 13.4777 56.3772 13.7698 56.1059 14.0273C55.8345 14.2849 55.4965 14.4872 55.0918 14.6344C54.6917 14.7815 54.2318 14.8551 53.7121 14.8551C52.9394 14.8551 52.2312 14.6758 51.5873 14.317C50.9481 13.9537 50.4353 13.3926 50.049 12.6338C49.6673 11.8704 49.4764 10.8885 49.4764 9.68815C49.4764 8.45102 49.6742 7.43234 50.0697 6.63212C50.4652 5.82729 50.9826 5.23172 51.6218 4.8454C52.2657 4.45909 52.9578 4.26593 53.6983 4.26593C54.2548 4.26593 54.7308 4.36251 55.1263 4.55567C55.5264 4.74422 55.8552 4.98797 56.1128 5.28691C56.3703 5.58584 56.5658 5.89627 56.6991 6.2182H56.7957V4.4039H60.1553V15.0414C60.1553 15.9382 59.9299 16.6947 59.4792 17.311C59.0285 17.9273 58.3985 18.3941 57.589 18.7114C56.7796 19.0333 55.8437 19.1943 54.7813 19.1943ZM54.8848 12.3993C55.2941 12.3993 55.6437 12.2912 55.9334 12.075C56.2231 11.8589 56.4462 11.5484 56.6026 11.1437C56.7589 10.739 56.8371 10.2538 56.8371 9.68815C56.8371 9.11328 56.7589 8.61888 56.6026 8.20497C56.4508 7.78646 56.2277 7.46453 55.9334 7.23918C55.6437 7.01383 55.2941 6.90116 54.8848 6.90116C54.4663 6.90116 54.1122 7.01613 53.8225 7.24608C53.5327 7.47603 53.312 7.80026 53.1602 8.21877C53.013 8.63268 52.9394 9.12247 52.9394 9.68815C52.9394 10.2538 53.0153 10.739 53.1671 11.1437C53.3189 11.5484 53.5373 11.8589 53.8225 12.075C54.1122 12.2912 54.4663 12.3993 54.8848 12.3993ZM62.3059 15V4.4039H65.5827V6.33548H65.6931C65.8862 5.63643 66.2012 5.11674 66.6382 4.77642C67.0751 4.43149 67.5832 4.25903 68.1627 4.25903C68.3191 4.25903 68.4801 4.27053 68.6456 4.29352C68.8112 4.31192 68.9652 4.34181 69.1078 4.3832V7.31507C68.9468 7.25988 68.7353 7.21619 68.4732 7.184C68.2156 7.1518 67.9857 7.13571 67.7833 7.13571C67.3832 7.13571 67.0222 7.22539 66.7002 7.40475C66.3829 7.57951 66.1323 7.82556 65.9483 8.14289C65.7689 8.45562 65.6793 8.82354 65.6793 9.24665V15H62.3059ZM74.8853 15.2001C73.7769 15.2001 72.8204 14.9816 72.0155 14.5447C71.2153 14.1032 70.599 13.4754 70.1667 12.6614C69.739 11.8428 69.5252 10.8701 69.5252 9.74334C69.5252 8.64878 69.7413 7.69219 70.1736 6.87356C70.6059 6.05034 71.2153 5.41108 72.0017 4.95578C72.7882 4.49588 73.7149 4.26593 74.7818 4.26593C75.5361 4.26593 76.2259 4.3832 76.8514 4.61775C77.4768 4.8523 78.0172 5.19953 78.4725 5.65943C78.9278 6.11933 79.282 6.6873 79.5349 7.36336C79.7878 8.03481 79.9143 8.80514 79.9143 9.67435V10.516H70.7048V8.5568H76.7755C76.7709 8.19808 76.6858 7.87844 76.5203 7.59791C76.3547 7.31737 76.127 7.09891 75.8373 6.94255C75.5522 6.78158 75.2233 6.7011 74.8508 6.7011C74.4737 6.7011 74.1357 6.78618 73.8367 6.95635C73.5378 7.12191 73.301 7.34956 73.1262 7.6393C72.9514 7.92443 72.8594 8.24866 72.8503 8.61199V10.6057C72.8503 11.038 72.9353 11.4174 73.1055 11.7439C73.2757 12.0658 73.5171 12.3165 73.8298 12.4958C74.1426 12.6752 74.5151 12.7649 74.9474 12.7649C75.2463 12.7649 75.5177 12.7235 75.7614 12.6407C76.0052 12.5579 76.2144 12.4361 76.3892 12.2751C76.5639 12.1141 76.695 11.9164 76.7824 11.6818L79.8798 11.7715C79.7511 12.4659 79.4682 13.0707 79.0313 13.5858C78.599 14.0963 78.031 14.4941 77.3274 14.7792C76.6237 15.0598 75.8097 15.2001 74.8853 15.2001ZM86.5903 15.2001C85.482 15.2001 84.5254 14.9816 83.7206 14.5447C82.9203 14.1032 82.3041 13.4754 81.8718 12.6614C81.4441 11.8428 81.2302 10.8701 81.2302 9.74334C81.2302 8.64878 81.4464 7.69219 81.8787 6.87356C82.311 6.05034 82.9203 5.41108 83.7068 4.95578C84.4932 4.49588 85.4199 4.26593 86.4869 4.26593C87.2411 4.26593 87.931 4.3832 88.5564 4.61775C89.1819 4.8523 89.7223 5.19953 90.1776 5.65943C90.6329 6.11933 90.987 6.6873 91.2399 7.36336C91.4929 8.03481 91.6194 8.80514 91.6194 9.67435V10.516H82.4099V8.5568H88.4805C88.4759 8.19808 88.3909 7.87844 88.2253 7.59791C88.0597 7.31737 87.8321 7.09891 87.5423 6.94255C87.2572 6.78158 86.9284 6.7011 86.5559 6.7011C86.1787 6.7011 85.8407 6.78618 85.5418 6.95635C85.2428 7.12191 85.006 7.34956 84.8312 7.6393C84.6565 7.92443 84.5645 8.24866 84.5553 8.61199V10.6057C84.5553 11.038 84.6404 11.4174 84.8105 11.7439C84.9807 12.0658 85.2221 12.3165 85.5349 12.4958C85.8476 12.6752 86.2201 12.7649 86.6524 12.7649C86.9514 12.7649 87.2227 12.7235 87.4665 12.6407C87.7102 12.5579 87.9195 12.4361 88.0942 12.2751C88.269 12.1141 88.4001 11.9164 88.4874 11.6818L91.5849 11.7715C91.4561 12.4659 91.1733 13.0707 90.7363 13.5858C90.304 14.0963 89.7361 14.4941 89.0324 14.7792C88.3288 15.0598 87.5147 15.2001 86.5903 15.2001ZM97.2123 15.1518C96.4305 15.1518 95.7199 14.9494 95.0807 14.5447C94.4414 14.14 93.9309 13.5329 93.5492 12.7235C93.1675 11.9141 92.9766 10.9092 92.9766 9.70885C92.9766 8.46252 93.1744 7.43694 93.5699 6.63212C93.9654 5.82729 94.4828 5.23172 95.1221 4.8454C95.7659 4.45909 96.4581 4.26593 97.1985 4.26593C97.755 4.26593 98.231 4.36251 98.6265 4.55567C99.022 4.74422 99.3486 4.98797 99.6061 5.28691C99.8636 5.58584 100.059 5.89627 100.192 6.2182H100.261V0.871865H103.635V15H100.296V13.2823H100.192C100.05 13.6088 99.8475 13.9146 99.5854 14.1998C99.3233 14.4849 98.9944 14.7149 98.5989 14.8896C98.208 15.0644 97.7458 15.1518 97.2123 15.1518ZM98.3851 12.5234C98.7944 12.5234 99.1439 12.4085 99.4336 12.1785C99.7234 11.944 99.9464 11.6151 100.103 11.192C100.259 10.7689 100.337 10.2722 100.337 9.70195C100.337 9.12248 100.259 8.62348 100.103 8.20497C99.951 7.78646 99.728 7.46453 99.4336 7.23918C99.1439 7.01383 98.7944 6.90116 98.3851 6.90116C97.9666 6.90116 97.6124 7.01613 97.3227 7.24608C97.033 7.47603 96.8122 7.80026 96.6604 8.21877C96.5133 8.63728 96.4397 9.13167 96.4397 9.70195C96.4397 10.2722 96.5156 10.7689 96.6673 11.192C96.8191 11.6151 97.0376 11.944 97.3227 12.1785C97.6124 12.4085 97.9666 12.5234 98.3851 12.5234ZM115.864 15H110.428V0.871865H115.809C117.262 0.871865 118.518 1.1547 119.576 1.72038C120.638 2.28146 121.457 3.09088 122.031 4.14865C122.611 5.20183 122.901 6.46425 122.901 7.93593C122.901 9.40761 122.613 10.6723 122.038 11.7301C121.463 12.7833 120.649 13.5927 119.596 14.1584C118.543 14.7195 117.299 15 115.864 15ZM114.264 11.7439H115.726C116.425 11.7439 117.021 11.6312 117.513 11.4059C118.01 11.1805 118.387 10.7919 118.644 10.24C118.906 9.68815 119.037 8.92012 119.037 7.93593C119.037 6.95175 118.904 6.18371 118.637 5.63183C118.375 5.07995 117.989 4.69134 117.478 4.46598C116.973 4.24063 116.352 4.12796 115.616 4.12796H114.264V11.7439ZM124.675 15V0.871865H134.857V3.96239H128.511V6.39067H134.333V9.4812H128.511V11.9095H134.83V15H124.675ZM140.871 0.871865L143.189 4.98337H143.299L145.645 0.871865H149.922L145.7 7.93593L150.088 15H145.7L143.299 10.8057H143.189L140.788 15H136.429L140.761 7.93593L136.567 0.871865H140.871Z" fill="url(#paint0_linear_916_21771)"/>
<defs>
<linearGradient id="paint0_linear_916_21771" x1="151" y1="24" x2="52.7647" y2="-60.4845" gradientUnits="userSpaceOnUse">
<stop offset="0.1272" stop-color="#FF9A9A"/>
<stop offset="0.481297" stop-color="#C296FF"/>
<stop offset="0.68597" stop-color="white"/>
<stop offset="1" stop-color="#AAEDFD"/>
</linearGradient>
</defs>
</svg>
