<svg width="100" height="21" viewBox="0 0 2313 284" fill="none" xmlns="http://www.w3.org/2000/svg">
<path d="M0.512785 219V0.818175H53.2472V88.3892H139.22V0.818175H191.848V219H139.22V131.322H53.2472V219H0.512785ZM271.056 221.77C260.616 221.77 251.347 220.03 243.251 216.55C235.225 212.999 228.869 207.672 224.181 200.57C219.565 193.396 217.256 184.412 217.256 173.616C217.256 164.526 218.854 156.855 222.05 150.605C225.246 144.355 229.65 139.277 235.261 135.371C240.871 131.464 247.335 128.517 254.65 126.528C261.965 124.469 269.778 123.084 278.087 122.374C287.391 121.521 294.884 120.634 300.566 119.71C306.248 118.716 310.367 117.331 312.924 115.555C315.552 113.709 316.866 111.116 316.866 107.778V107.246C316.866 101.777 314.984 97.5511 311.219 94.5682C307.455 91.5852 302.377 90.0938 295.985 90.0938C289.096 90.0938 283.556 91.5852 279.366 94.5682C275.175 97.5511 272.512 101.67 271.376 106.926L223.329 105.222C224.749 95.2784 228.407 86.4006 234.302 78.5881C240.268 70.7045 248.435 64.5256 258.805 60.0511C269.245 55.5057 281.781 53.233 296.411 53.233C306.852 53.233 316.475 54.4759 325.282 56.9616C334.089 59.3764 341.759 62.9276 348.293 67.6151C354.827 72.2315 359.87 77.9134 363.421 84.6605C367.043 91.4077 368.854 99.1136 368.854 107.778V219H319.849V196.202H318.57C315.658 201.741 311.93 206.429 307.384 210.264C302.91 214.099 297.619 216.976 291.511 218.893C285.474 220.811 278.656 221.77 271.056 221.77ZM287.143 187.679C292.754 187.679 297.796 186.543 302.271 184.27C306.816 181.997 310.438 178.872 313.137 174.895C315.836 170.847 317.185 166.159 317.185 160.832V145.278C315.694 146.06 313.883 146.77 311.752 147.409C309.692 148.048 307.42 148.652 304.934 149.22C302.448 149.788 299.891 150.286 297.263 150.712C294.636 151.138 292.114 151.528 289.7 151.884C284.799 152.665 280.609 153.872 277.129 155.506C273.719 157.139 271.092 159.27 269.245 161.898C267.469 164.455 266.582 167.509 266.582 171.06C266.582 176.457 268.499 180.577 272.335 183.418C276.241 186.259 281.177 187.679 287.143 187.679ZM543.57 105.328L495.737 106.607C495.239 103.197 493.89 100.179 491.688 97.5511C489.487 94.8523 486.61 92.7571 483.059 91.2656C479.579 89.7031 475.531 88.9219 470.914 88.9219C464.877 88.9219 459.728 90.1293 455.467 92.544C451.276 94.9588 449.217 98.2259 449.288 102.345C449.217 105.541 450.495 108.311 453.123 110.655C455.822 112.999 460.616 114.881 467.505 116.301L499.039 122.267C515.374 125.392 527.519 130.577 535.474 137.821C543.499 145.065 547.548 154.653 547.619 166.585C547.548 177.807 544.21 187.572 537.604 195.882C531.07 204.192 522.121 210.655 510.758 215.271C499.394 219.817 486.397 222.089 471.766 222.089C448.4 222.089 429.969 217.295 416.475 207.707C403.052 198.048 395.381 185.122 393.464 168.929L444.92 167.651C446.056 173.616 449.004 178.162 453.762 181.287C458.521 184.412 464.593 185.974 471.979 185.974C478.656 185.974 484.089 184.732 488.279 182.246C492.469 179.76 494.6 176.457 494.671 172.338C494.6 168.645 492.967 165.697 489.771 163.496C486.575 161.223 481.567 159.447 474.749 158.169L446.198 152.736C429.792 149.753 417.576 144.249 409.55 136.223C401.525 128.126 397.548 117.828 397.619 105.328C397.548 94.3906 400.46 85.0511 406.354 77.3097C412.249 69.4972 420.63 63.5313 431.496 59.4119C442.363 55.2926 455.183 53.233 469.955 53.233C492.114 53.233 509.586 57.8849 522.37 67.1889C535.154 76.4219 542.221 89.1349 543.57 105.328ZM625.362 125.676V219H573.267V0.818175H623.657V85.4062H625.468C629.162 75.321 635.199 67.4375 643.579 61.7557C652.031 56.0739 662.365 53.233 674.581 53.233C686.086 53.233 696.1 55.7898 704.623 60.9034C713.146 65.946 719.751 73.0838 724.439 82.3168C729.197 91.5497 731.541 102.345 731.47 114.703V219H679.375V124.93C679.446 115.839 677.173 108.737 672.556 103.624C667.94 98.5099 661.441 95.9531 653.061 95.9531C647.592 95.9531 642.762 97.1605 638.572 99.5753C634.453 101.919 631.221 105.293 628.877 109.696C626.605 114.099 625.433 119.426 625.362 125.676ZM840.268 283.773C824.714 283.773 811.397 281.607 800.317 277.274C789.238 272.942 780.538 267.011 774.217 259.483C767.896 251.955 764.096 243.432 762.817 233.915L812.143 231.145C813.066 234.483 814.771 237.395 817.256 239.881C819.813 242.366 823.116 244.284 827.164 245.634C831.283 246.983 836.113 247.658 841.653 247.658C850.388 247.658 857.597 245.527 863.279 241.266C869.032 237.075 871.908 229.724 871.908 219.213V190.449H870.097C868.038 195.491 864.913 200.001 860.722 203.979C856.532 207.956 851.312 211.081 845.062 213.354C838.883 215.626 831.781 216.763 823.755 216.763C811.823 216.763 800.886 213.993 790.942 208.453C781.07 202.842 773.151 194.178 767.185 182.459C761.29 170.669 758.343 155.506 758.343 136.969C758.343 117.864 761.397 102.132 767.505 89.7741C773.613 77.3452 781.603 68.1477 791.475 62.1818C801.418 56.2159 812.107 53.233 823.542 53.233C832.136 53.233 839.487 54.7244 845.594 57.7074C851.773 60.6193 856.852 64.3835 860.829 69C864.806 73.6165 867.825 78.4105 869.884 83.3821H871.376V55.3636H923.258V219.639C923.258 233.489 919.778 245.172 912.817 254.689C905.857 264.206 896.127 271.415 883.627 276.315C871.127 281.287 856.674 283.773 840.268 283.773ZM841.866 178.837C848.187 178.837 853.585 177.168 858.059 173.83C862.533 170.491 865.978 165.697 868.393 159.447C870.808 153.197 872.015 145.705 872.015 136.969C872.015 128.091 870.808 120.456 868.393 114.064C866.049 107.601 862.604 102.629 858.059 99.1491C853.585 95.669 848.187 93.929 841.866 93.929C835.403 93.929 829.934 95.7045 825.46 99.2557C820.985 102.807 817.576 107.814 815.232 114.277C812.96 120.669 811.823 128.233 811.823 136.969C811.823 145.705 812.995 153.197 815.339 159.447C817.683 165.697 821.056 170.491 825.46 173.83C829.934 177.168 835.403 178.837 841.866 178.837ZM956.47 219V55.3636H1007.07V85.1932H1008.78C1011.76 74.3977 1016.63 66.3722 1023.37 61.1165C1030.12 55.7898 1037.97 53.1264 1046.92 53.1264C1049.33 53.1264 1051.82 53.304 1054.37 53.6591C1056.93 53.9432 1059.31 54.4048 1061.51 55.044V100.321C1059.03 99.4687 1055.76 98.794 1051.71 98.2969C1047.73 97.7997 1044.18 97.5511 1041.06 97.5511C1034.88 97.5511 1029.3 98.9361 1024.33 101.706C1019.43 104.405 1015.56 108.205 1012.72 113.105C1009.95 117.935 1008.56 123.616 1008.56 130.151V219H956.47ZM1150.73 222.089C1133.62 222.089 1118.85 218.716 1106.42 211.969C1094.06 205.151 1084.54 195.456 1077.87 182.885C1071.26 170.243 1067.96 155.222 1067.96 137.821C1067.96 120.918 1071.3 106.145 1077.97 93.5028C1084.65 80.7898 1094.06 70.9176 1106.2 63.8864C1118.35 56.7841 1132.66 53.233 1149.14 53.233C1160.78 53.233 1171.44 55.044 1181.1 58.6662C1190.76 62.2883 1199.1 67.6506 1206.13 74.7528C1213.16 81.8551 1218.63 90.6264 1222.54 101.067C1226.44 111.436 1228.4 123.332 1228.4 136.756V149.753H1086.18V119.497H1179.93C1179.85 113.957 1178.54 109.021 1175.98 104.689C1173.43 100.357 1169.91 96.983 1165.44 94.5682C1161.03 92.0824 1155.95 90.8395 1150.2 90.8395C1144.38 90.8395 1139.16 92.1534 1134.54 94.7812C1129.93 97.3381 1126.27 100.854 1123.57 105.328C1120.87 109.732 1119.45 114.739 1119.31 120.349V151.138C1119.31 157.814 1120.62 163.673 1123.25 168.716C1125.88 173.687 1129.61 177.558 1134.44 180.328C1139.26 183.098 1145.02 184.483 1151.69 184.483C1156.31 184.483 1160.5 183.844 1164.26 182.565C1168.03 181.287 1171.26 179.405 1173.96 176.919C1176.66 174.433 1178.68 171.379 1180.03 167.757L1227.87 169.142C1225.88 179.866 1221.51 189.206 1214.76 197.161C1208.09 205.044 1199.31 211.187 1188.45 215.591C1177.58 219.923 1165.01 222.089 1150.73 222.089ZM1331.5 222.089C1314.38 222.089 1299.61 218.716 1287.18 211.969C1274.82 205.151 1265.3 195.456 1258.63 182.885C1252.02 170.243 1248.72 155.222 1248.72 137.821C1248.72 120.918 1252.06 106.145 1258.73 93.5028C1265.41 80.7898 1274.82 70.9176 1286.97 63.8864C1299.11 56.7841 1313.42 53.233 1329.9 53.233C1341.55 53.233 1352.2 55.044 1361.86 58.6662C1371.52 62.2883 1379.86 67.6506 1386.89 74.7528C1393.93 81.8551 1399.39 90.6264 1403.3 101.067C1407.21 111.436 1409.16 123.332 1409.16 136.756V149.753H1266.94V119.497H1360.69C1360.62 113.957 1359.3 109.021 1356.75 104.689C1354.19 100.357 1350.67 96.983 1346.2 94.5682C1341.79 92.0824 1336.72 90.8395 1330.96 90.8395C1325.14 90.8395 1319.92 92.1534 1315.3 94.7812C1310.69 97.3381 1307.03 100.854 1304.33 105.328C1301.63 109.732 1300.21 114.739 1300.07 120.349V151.138C1300.07 157.814 1301.38 163.673 1304.01 168.716C1306.64 173.687 1310.37 177.558 1315.2 180.328C1320.03 183.098 1325.78 184.483 1332.46 184.483C1337.07 184.483 1341.26 183.844 1345.03 182.565C1348.79 181.287 1352.02 179.405 1354.72 176.919C1357.42 174.433 1359.44 171.379 1360.79 167.757L1408.63 169.142C1406.64 179.866 1402.27 189.206 1395.52 197.161C1388.85 205.044 1380.08 211.187 1369.21 215.591C1358.34 219.923 1345.77 222.089 1331.5 222.089ZM1495.53 221.344C1483.46 221.344 1472.49 218.219 1462.61 211.969C1452.74 205.719 1444.86 196.344 1438.96 183.844C1433.07 171.344 1430.12 155.825 1430.12 137.288C1430.12 118.041 1433.17 102.203 1439.28 89.7741C1445.39 77.3452 1453.38 68.1477 1463.25 62.1818C1473.2 56.2159 1483.88 53.233 1495.32 53.233C1503.91 53.233 1511.26 54.7244 1517.37 57.7074C1523.48 60.6193 1528.52 64.3835 1532.5 69C1536.48 73.6165 1539.5 78.4105 1541.56 83.3821H1542.62V0.818175H1594.72V219H1543.15V192.473H1541.56C1539.35 197.516 1536.23 202.239 1532.18 206.642C1528.13 211.045 1523.05 214.597 1516.95 217.295C1510.91 219.994 1503.77 221.344 1495.53 221.344ZM1513.64 180.754C1519.96 180.754 1525.36 178.979 1529.84 175.428C1534.31 171.805 1537.76 166.727 1540.17 160.193C1542.58 153.659 1543.79 145.989 1543.79 137.182C1543.79 128.233 1542.58 120.527 1540.17 114.064C1537.83 107.601 1534.38 102.629 1529.84 99.1491C1525.36 95.669 1519.96 93.929 1513.64 93.929C1507.18 93.929 1501.71 95.7045 1497.24 99.2557C1492.76 102.807 1489.35 107.814 1487.01 114.277C1484.74 120.74 1483.6 128.375 1483.6 137.182C1483.6 145.989 1484.77 153.659 1487.12 160.193C1489.46 166.727 1492.83 171.805 1497.24 175.428C1501.71 178.979 1507.18 180.754 1513.64 180.754ZM1783.57 219H1699.62V0.818175H1782.72C1805.16 0.818175 1824.55 5.18608 1840.89 13.9219C1857.3 22.5866 1869.94 35.0866 1878.82 51.4219C1887.76 67.6861 1892.24 87.1818 1892.24 109.909C1892.24 132.636 1887.8 152.168 1878.92 168.503C1870.04 184.767 1857.47 197.267 1841.21 206.003C1824.94 214.668 1805.73 219 1783.57 219ZM1758.86 168.716H1781.44C1792.24 168.716 1801.44 166.976 1809.04 163.496C1816.71 160.016 1822.53 154.014 1826.51 145.491C1830.56 136.969 1832.58 125.108 1832.58 109.909C1832.58 94.7102 1830.52 82.8494 1826.4 74.3267C1822.35 65.804 1816.39 59.8025 1808.5 56.3224C1800.69 52.8423 1791.1 51.1023 1779.74 51.1023H1758.86V168.716ZM1919.64 219V0.818175H2076.89V48.5455H1978.88V86.0454H2068.79V133.773H1978.88V171.273H2076.46V219H1919.64ZM2169.76 0.818175L2205.56 64.3125H2207.26L2243.48 0.818175H2309.53L2244.33 109.909L2312.09 219H2244.33L2207.26 154.227H2205.56L2168.48 219H2101.15L2168.06 109.909L2103.28 0.818175H2169.76Z" fill="url(#paint0_linear_807_29007)"/>
<defs>
<linearGradient id="paint0_linear_807_29007" x1="2359" y1="250" x2="1563.95" y2="-971.006" gradientUnits="userSpaceOnUse">
<stop offset="0.1272" stop-color="#FF9A9A"/>
<stop offset="0.481297" stop-color="#C296FF"/>
<stop offset="0.68597" stop-color="white"/>
<stop offset="1" stop-color="#AAEDFD"/>
</linearGradient>
</defs>
</svg>
